<svg id="Warstwa_1" data-name="Warstwa 1" xmlns="http://www.w3.org/2000/svg" xmlns:xlink="http://www.w3.org/1999/xlink" viewBox="0 0 544.09 261.86"><defs><style>.cls-1{fill:#1d1d1b;}.cls-2{fill:url(#Gradient_bez_nazwy_7);}.cls-3{fill:#07381d;}.cls-4{fill:#466929;}.cls-5{fill:#2c4216;}.cls-6{fill:#466d2b;}.cls-7{fill:#e09b5e;}.cls-8{fill:#fff;}.cls-9{fill:#6f678d;}.cls-10{fill:#e5232f;}</style><linearGradient id="Gradient_bez_nazwy_7" x1="398.11" y1="36.98" x2="409.27" y2="138.49" gradientTransform="translate(677.98 242.33) rotate(180)" gradientUnits="userSpaceOnUse"><stop offset="0.6" stop-color="#157241"/><stop offset="0.8" stop-color="#16271c"/></linearGradient></defs><path class="cls-1" d="M542.55,122.76l-11.48.48a1.8,1.8,0,0,1-1.87-1.72v0a1.79,1.79,0,0,0-2-1.71c-76.16,9-153.41,17.65-229.7,25.75-57.91,6.14-116.66,12.12-174.66,17.76a1.75,1.75,0,0,0-1.13.56,140.82,140.82,0,0,1-34.49,27.39,143.14,143.14,0,0,1-61.69,18l-2.1.12a1.79,1.79,0,0,1-1.23-3.18l1.64-1.33A235.82,235.82,0,0,0,45.4,185.22c3.87-4,7.62-8.14,11.21-12.4a1.8,1.8,0,0,0-1.39-3q-4.14.06-8.27.06c-4.39,0-8.85,0-13.24-.14-8-.18-15.65-.34-21.49-.65-9.15-.49-11.84-1-12-3.79s2.16-3.78,14.06-5.75c8.14-1.35,20.54-3,37-4.94a1.8,1.8,0,0,0,.58-3.4L49.21,150a290.24,290.24,0,0,0-37-14.66l-.11,0c-3.43-.87-10.4-2.76-10.24-3.9s7.67-1,11.16-.91a348.87,348.87,0,0,1,40.08,4.11,350.52,350.52,0,0,1,54,13.21,1.69,1.69,0,0,0,.74.08c62.33-6.84,125.58-13.73,188-20.5,76.73-8.3,154.34-16.64,230.75-24.77a1.79,1.79,0,0,0,1.6-1.91l0-.45a1.79,1.79,0,0,1,1.7-1.92l11.78-.54a1.79,1.79,0,0,1,1.88,1.73l.68,21.36A1.79,1.79,0,0,1,542.55,122.76Z" transform="translate(-0.18 -0.14)"/><path class="cls-2" d="M531.48,116.78q-117,13.85-234.24,26.28Q209.15,152.42,121,161a138.83,138.83,0,0,1-35,28.11,140.21,140.21,0,0,1-60.61,17.7,241.31,241.31,0,0,0,21.78-19.85A236.77,236.77,0,0,0,64.33,167.2c-7.52.22-18,.38-30.57.11-15.71-.34-31-.67-31.11-2.15-.09-1.28,11.21-3.87,62.65-9.65-4.74-2.62-9.75-5.21-15-7.73A293.68,293.68,0,0,0,13,133a343.33,343.33,0,0,1,39.8,4.08,344.91,344.91,0,0,1,54.49,13.41q94.46-10.38,188.92-20.6Q413.57,117.15,531,104.66l-.27-3.86,10.4-.49q.33,10,.65,20l-10.14.43Z" transform="translate(-0.18 -0.14)"/><path class="cls-3" d="M119.18,161.74a122.71,122.71,0,0,1-12.47,12.31C83.45,193.88,58,200.22,45.79,203.27c-5.13,1.27-10.35,2.33-15.52,3.15l-2.59.41,42.16-40.38,50.77-6.34Z" transform="translate(-0.18 -0.14)"/><path class="cls-4" d="M118.56,161.19l-48.35,6q-20,19.19-40.07,38.38c3.46-.55,8.9-1.51,15.45-3.14,13.29-3.31,37.93-9.73,60.58-29.05A119.8,119.8,0,0,0,118.56,161.19Z" transform="translate(-0.18 -0.14)"/><path class="cls-3" d="M33.3,136.72a212.05,212.05,0,0,1,48.79,7.19,210,210,0,0,1,20.35,6.62l-.1.71-.14.88L69.26,154.3l-36.32-16Z" transform="translate(-0.18 -0.14)"/><path class="cls-4" d="M102.15,151.3a208.46,208.46,0,0,0-20.28-6.6,210.77,210.77,0,0,0-48.59-7.16L69.4,153.47Z" transform="translate(-0.18 -0.14)"/><path class="cls-5" d="M109.28,165.49l.71.41a24.42,24.42,0,0,1-2.25,3.28,24,24,0,0,1-3.4,3.43l-.52-.63a23.39,23.39,0,0,0,3.28-3.32A23.75,23.75,0,0,0,109.28,165.49Z" transform="translate(-0.18 -0.14)"/><path class="cls-5" d="M91.48,166.81l.74.35a53.86,53.86,0,0,1-12.16,16.46l-.56-.6a53.17,53.17,0,0,0,12-16.21Z" transform="translate(-0.18 -0.14)"/><path class="cls-5" d="M72.75,169.6l.71.41a71.57,71.57,0,0,1-9.55,12.87,71.17,71.17,0,0,1-14.49,11.89l-.43-.7a70.09,70.09,0,0,0,14.32-11.76A70.67,70.67,0,0,0,72.75,169.6Z" transform="translate(-0.18 -0.14)"/><path class="cls-5" d="M71.65,144.63a45.86,45.86,0,0,1,6.21,2.31,47.43,47.43,0,0,1,5.48,3l-.44.7a45.27,45.27,0,0,0-11.48-5.18Z" transform="translate(-0.18 -0.14)"/><path class="cls-5" d="M46.88,140.85a115.75,115.75,0,0,1,13.8,5.29c3.21,1.46,6.38,3.09,9.45,4.84l-.41.71c-3-1.73-6.2-3.35-9.38-4.81a119.52,119.52,0,0,0-13.71-5.25Z" transform="translate(-0.18 -0.14)"/><path class="cls-6" d="M540.38,118.28l-7.13.43q-.48-8.07-1-16.14l7.94-.54Z" transform="translate(-0.18 -0.14)"/><path class="cls-1" d="M234.16,88.58c-.08-.8,8-2.62,16.17-3.13,9.25-.57,18.39.56,18.39,1.44,0,1.06-13.49,1.85-19.56,2.08C245.83,89.1,234.25,89.54,234.16,88.58Z" transform="translate(-0.18 -0.14)"/><path class="cls-1" d="M231.16,115.06c-.48-.59,7.23-7.74,14-13.3,10.78-8.91,23-17.05,23.61-16.31S257.23,96.78,246.29,105C240.87,109.1,231.65,115.68,231.16,115.06Z" transform="translate(-0.18 -0.14)"/><path class="cls-1" d="M244.85,120.67c-.5-.5,5-7.86,12.79-14.35,7.53-6.29,15.51-10.36,15.91-9.78.25.37-2.63,2.51-15,12.91C247.42,118.81,245.15,121,244.85,120.67Z" transform="translate(-0.18 -0.14)"/><path class="cls-1" d="M468,196.28a36.47,36.47,0,0,1-15.85-3.75l-.74-.35q2.55-12.85,5.08-25.7l1.18-.48a10.29,10.29,0,0,1,4.59,1.65,14.09,14.09,0,0,1,2.6,2.57,36.81,36.81,0,0,1,5.65,8.58c.34.66.68,1.31,1,2a66.85,66.85,0,0,0,8.28,11.85l.95,1.1-1.35.5A33.33,33.33,0,0,1,468,196.28Z" transform="translate(-0.18 -0.14)"/><path class="cls-7" d="M458.42,167.61a27,27,0,0,1,4.52,3.34c3.85,3.52,5.5,7.1,7.17,10.11a64.24,64.24,0,0,0,8.94,12.23A32.07,32.07,0,0,1,472.5,195a34.86,34.86,0,0,1-20-3.32Z" transform="translate(-0.18 -0.14)"/><path class="cls-1" d="M366.66,262a28.31,28.31,0,0,1-4.17-.37c-6.27-.94-12.09-4.34-17.29-10.11a27.4,27.4,0,0,1-3.73-5.25c-1.2-2-2.85-4.81-6.52-10-4.38-6.15-5.33-6.82-6.12-7a4.17,4.17,0,0,0-1.25-.19c-1.94,0-3.85,1.39-5.88,2.86-2.49,1.81-5.32,3.86-8.95,3.86a9.66,9.66,0,0,1-2.25-.26c-2.56-.58-8.74-2.53-10.63-7.94-.39-1.12-1.51-4.94.59-7.26a4.21,4.21,0,0,1,3.42-1.31c.6,0,1.26.05,2,.11,1,.08,2.05.17,3.32.17a26.9,26.9,0,0,0,3.35-.21,31.46,31.46,0,0,0,9.36-2.79,35.52,35.52,0,0,0,8.25-5.2l.21-.18.27,0c2.58-.42,5.2-.75,7.8-1,3.56-.33,7.19-.5,10.78-.5a119.55,119.55,0,0,1,20.25,1.75l.33,0,.23.25a37.41,37.41,0,0,0,6.08,5.22c3.73,2.57,7.07,3.86,12.61,6,2.67,1,5.71,2.21,9.51,3.81,6.15,2.58,8.32,3.68,8.56,5.9.39,3.52-4.86,6.7-8.48,8a17.41,17.41,0,0,1-5.76,1,18.5,18.5,0,0,1-2.95-.23l.13.15c1.7,2,5.41,7.09,3.15,11.78-1.74,3.6-6.13,4.88-9.37,4.88h-.3a12.13,12.13,0,0,1-7.24-2.75,8.28,8.28,0,0,1-1.9,4.11C372.44,261.05,369.94,262,366.66,262Z" transform="translate(-0.18 -0.14)"/><path class="cls-7" d="M330.81,211.84a36.33,36.33,0,0,1-8.48,5.35,32.49,32.49,0,0,1-9.65,2.87c-6.66.83-9.62-1.15-11.48.91s-.59,5.68-.39,6.26c1.92,5.47,8.8,7.05,9.91,7.31,8.17,1.87,12.24-8.1,18.39-6.26,1.05.31,2,.89,6.66,7.43,7.33,10.3,6.7,11.29,10.17,15.13,1.9,2.11,7.79,8.46,16.7,9.79,2.57.38,7.81,1.16,10.69-2.09a8.37,8.37,0,0,0,1.83-5.61,11.47,11.47,0,0,0,8.09,3.91c2.74.07,7.1-.9,8.73-4.3,2.23-4.61-2.36-10-3-10.7a13.91,13.91,0,0,0-3.65-3,18.3,18.3,0,0,0,12.65.53c3.29-1.16,8.15-4.08,7.83-6.92-.17-1.55-1.83-2.51-8-5.08-11.76-4.94-16.65-6-22.3-9.92a38.21,38.21,0,0,1-6.24-5.36,117.13,117.13,0,0,0-30.77-1.23Q334.52,211.24,330.81,211.84Z" transform="translate(-0.18 -0.14)"/><path class="cls-1" d="M353.83,233.45c-.25.2,3.51,6.86,9.78,12.57a121.48,121.48,0,0,0,9.76,7.73c.86.62,1.58,1.12,2.08,1.46-.1-.76-.19-1.52-.29-2.28-.94-.6-2.2-1.43-3.65-2.48C359.89,242.1,354.13,233.21,353.83,233.45Z" transform="translate(-0.18 -0.14)"/><path class="cls-1" d="M372.17,231a78.33,78.33,0,0,1,9.18,5,79.51,79.51,0,0,1,8,5.74.65.65,0,0,1-.16-.93.6.6,0,0,1,.63-.09A28.88,28.88,0,0,0,372.17,231Z" transform="translate(-0.18 -0.14)"/><path class="cls-1" d="M277.59,80a34.84,34.84,0,0,1,1.31-15.13,35.92,35.92,0,0,1,12.78-17.61c9.17-6.61,18.92-6.5,29.22-6.39,8.54.1,16.33.19,25,4.83,2.35,1.25,16.48,8.78,20,22.83,1.92,7.76-.72,12.2,3.13,22.3,1.34,3.53,2.51,6.6,5.35,9.65,6.89,7.44,17.39,8.07,23.08,8.42,8.75.52,9.47-1.62,17.81-.4,5.16.76,11.21,1.74,15.65,6.46,2.7,2.87,3.57,5.81,5.28,11.54a82.22,82.22,0,0,1,2.94,17.42c.45,6,.18,8.86,1.95,13.5,1,2.64,2.16,5.5,4.89,6.84,1.58.78,2.66.55,7.63,1.18,2.2.28,4,.57,5.16.78a63,63,0,0,1-5.35,27.52,29.6,29.6,0,0,1-5.09,3.79,30.89,30.89,0,0,1-13,4c-8.2.6-14.55-2.45-21.13-5.61a67.24,67.24,0,0,1-7.44-4.17,57,57,0,0,1-9.13,3.13c-7.83,2-14.42,1.78-21.65,1.17-19.24-1.63-28.86-2.45-40-8.22-7.26-3.74-11.77-7.75-16.83-12.26a107.39,107.39,0,0,1-26.61-35.74,98.91,98.91,0,0,1-7.56-27.52,20,20,0,0,1-9.79-6.39,18.61,18.61,0,0,1-2.73-4.56,16.61,16.61,0,0,0,5.47-6.4C281.2,88,278.1,81.05,277.59,80Z" transform="translate(-0.18 -0.14)"/><ellipse class="cls-8" cx="306.57" cy="72.01" rx="9.33" ry="18.39"/><ellipse class="cls-8" cx="287.67" cy="71.13" rx="15.69" ry="8.14" transform="translate(182.97 348.27) rotate(-83.24)"/><ellipse class="cls-1" cx="286.87" cy="72.6" rx="2.93" ry="5.8"/><ellipse class="cls-1" cx="305.51" cy="72.67" rx="7.7" ry="3.91" transform="translate(197.18 367.35) rotate(-83.24)"/><path class="cls-9" d="M287,114.93a105.86,105.86,0,0,0,3.4,13.44,112.34,112.34,0,0,0,28.82,45.26c5.1,4.89,10.32,9.8,18.78,13.69a64.68,64.68,0,0,0,18.27,5.09,77.7,77.7,0,0,0,25.56-.52c7.85-1.47,9.85-3.12,10.83-5,1.73-3.29.68-7.84-1.44-10.7a12.08,12.08,0,0,0-5.35-3.91c-11.45-4.55-28.85-12.79-38.08-18.39-5.13-3.11-9.76-5.91-14.48-11.35-2.24-2.57-9.56-11-11-22.82-.39-3.29-.48-8.2-.52-10.18-.16-8.07.4-10.94-1.7-14.21a10.89,10.89,0,0,0-6.13-4.7c-4.51-1.19-8.42,1.53-10.17,2.74A17.19,17.19,0,0,0,297,103.58c-.8,3.41-.8,8.21.78,8.74,1.14.39,2.66-1.58,4.44-3.65a92.36,92.36,0,0,1,12-11.61A63.85,63.85,0,0,0,309,111.54c-.82,3.64-1.24,7.11-4.18,9.52-.5.42-3,2.5-5.47,1.7s-4-4-3.53-8l-4.43.07Z" transform="translate(-0.18 -0.14)"/><path class="cls-1" d="M360.81,105.15c-5,2.62-6.62,7.91-7.7,11.48-1.4,4.62-1.2,7.92-1.17,13,0,0,0,.38-.78,19.7-.69,16.93-6.8,30.93-13.18,45.52-3.23,7.4-6.34,13.27-8.47,17.08A54.22,54.22,0,0,0,342.94,216a55.82,55.82,0,0,0,26.22-2.09c.83-2.37,2-5.83,3.26-10,3.08-10.27,7.5-25,8.61-44,.42-7.15-.85-17.81-3.39-39.13-.78-6.55-1.78-14-6.92-16.43C366.4,102.31,361.36,104.86,360.81,105.15Z" transform="translate(-0.18 -0.14)"/><path class="cls-9" d="M379.67,138.23c.09,2.8.21,6.81.31,11.66.08,3.42.12,5.5.13,7.82,0,3.64,0,8.72-.36,14.93.36-2.26.74-5.2,1-8.65a112.45,112.45,0,0,0-.16-16.87C380.4,144.66,380.12,141.66,379.67,138.23Z" transform="translate(-0.18 -0.14)"/><path class="cls-9" d="M351.66,136.83c.28,0,.74,5.06.93,9.27.12,2.63.18,4,.11,5.47a29.68,29.68,0,0,1-3.45,12.18,123.43,123.43,0,0,0,2-15.8C351.58,141.7,351.39,136.84,351.66,136.83Z" transform="translate(-0.18 -0.14)"/><path class="cls-1" d="M368.51,95.07c1.12-1.48,3.17,0,11.44-.68,6.35-.5,7.48-1.54,11.64-1,2.56.34,6,.8,8.91,3.52,3.33,3.14,3.86,7.39,4.1,9.29a18.55,18.55,0,0,1-.58,7.44c-2,.85-13.22,5.49-23.58-.1C371.65,108.82,366.18,98.15,368.51,95.07Z" transform="translate(-0.18 -0.14)"/><path class="cls-9" d="M371.83,97.05a32.32,32.32,0,0,0,7.11,6,32.82,32.82,0,0,0,8.09,3.39A52,52,0,0,0,395.9,108c2.34.29,5.41.61,9.06.78a63.91,63.91,0,0,1-9.84,0c-5.85-.46-10-.79-14.55-3.3A22.8,22.8,0,0,1,371.83,97.05Z" transform="translate(-0.18 -0.14)"/><path class="cls-1" d="M273.2,102.54a3.36,3.36,0,0,1-.63-.06c-1.17-.24-1.65-1.09-2.52-2.63-.34-.6-.76-1.34-1.33-2.26a39.46,39.46,0,0,1-4.82-11.65c-1.12-4.73-1.94-8.15.14-9.87a3.52,3.52,0,0,1,2.33-.75,21.25,21.25,0,0,1,5.11,1.08,36.92,36.92,0,0,1,7.77,3.22l.32.18.13.34c1.45,3.84,3.33,11.19-.27,17.24-.51.86-3.23,5.16-6.23,5.16Z" transform="translate(-0.18 -0.14)"/><path class="cls-10" d="M278.77,80.5a35.5,35.5,0,0,0-7.57-3.13c-3.33-1-5.32-1.52-6.52-.53-1.6,1.33-.82,4.6.2,8.87a38.27,38.27,0,0,0,4.69,11.35c1.92,3.1,2.16,4.22,3.2,4.44,2.66.54,5.56-4.23,5.8-4.63C282.21,90.76,279.79,83.22,278.77,80.5Z" transform="translate(-0.18 -0.14)"/><path class="cls-1" d="M258.81,36.67c0-.55,10.08-2.56,22.57-2.35,22.5.38,40.32,7.77,40.17,8.35-.1.39-8.51-2.51-23.74-4.44C275.23,35.38,258.85,37.37,258.81,36.67Z" transform="translate(-0.18 -0.14)"/><path class="cls-1" d="M301.07,11.37c-.47.36,4.8,6.09,9.26,16.43,4.6,10.66,4.94,18.35,5.48,18.26s1.26-10.83-3.91-21.39C307.82,16.35,301.55,11,301.07,11.37Z" transform="translate(-0.18 -0.14)"/><path class="cls-1" d="M311.25.15c-.46.32,7.29,8.48,12.52,23.08,5.13,14.36,4.49,25.61,5.08,25.57S331.13,37,326.9,24C322.05,9.17,311.74-.21,311.25.15Z" transform="translate(-0.18 -0.14)"/></svg>